<svg xmlns="http://www.w3.org/2000/svg" viewBox="0 0 15 15" width="15" height="15" fill="none">
  <circle cx="11.5" cy="3.5" r="0.5" fill="currentColor" />
  <circle cx="13.5" cy="3.5" r="0.5" fill="currentColor" />
  <circle cx="11.5" cy="5.5" r="0.5" fill="currentColor" />
  <circle cx="13.5" cy="5.5" r="0.5" fill="currentColor" />
  <circle cx="11.5" cy="7.5" r="0.5" fill="currentColor" />
  <circle cx="13.5" cy="7.5" r="0.5" fill="currentColor" />
  <circle cx="11.5" cy="9.5" r="0.5" fill="currentColor" />
  <circle cx="13.5" cy="9.5" r="0.5" fill="currentColor" />
  <circle cx="3.5" cy="11.5" r="0.5" fill="currentColor" />
  <circle cx="5.5" cy="11.5" r="0.5" fill="currentColor" />
  <circle cx="7.5" cy="11.5" r="0.5" fill="currentColor" />
  <circle cx="9.5" cy="11.5" r="0.5" fill="currentColor" />
  <circle cx="3.5" cy="13.5" r="0.5" fill="currentColor" />
  <circle cx="5.5" cy="13.5" r="0.5" fill="currentColor" />
  <circle cx="7.5" cy="13.5" r="0.5" fill="currentColor" />
  <circle cx="9.5" cy="13.5" r="0.5" fill="currentColor" />
  <circle cx="11.5" cy="11.5" r="0.5" fill="currentColor" />
  <circle cx="13.5" cy="11.5" r="0.5" fill="currentColor" />
  <circle cx="11.5" cy="13.5" r="0.5" fill="currentColor" />
  <circle cx="13.5" cy="13.5" r="0.5" fill="currentColor" />
  <path d="M0 0h10v10h-10zM1 1v8h8v-8z" fill="currentColor" fill-rule="evenodd" />
</svg>
