<svg xmlns="http://www.w3.org/2000/svg" viewBox="0 0 15 15" width="15" height="15" fill="none">
  <path d="M5 5h5v5h-5zM6 6v3h3v-3z" fill="currentColor" fill-rule="evenodd" />
  <circle cx="1.5" cy="1.5" r="0.5" fill="currentColor" />
  <circle cx="3.5" cy="1.5" r="0.5" fill="currentColor" />
  <circle cx="5.5" cy="1.5" r="0.5" fill="currentColor" />
  <circle cx="7.5" cy="1.5" r="0.5" fill="currentColor" />
  <circle cx="9.5" cy="1.5" r="0.5" fill="currentColor" />
  <circle cx="11.5" cy="1.5" r="0.5" fill="currentColor" />
  <circle cx="13.5" cy="1.5" r="0.5" fill="currentColor" />
  <circle cx="1.5" cy="13.5" r="0.5" fill="currentColor" />
  <circle cx="3.5" cy="13.5" r="0.5" fill="currentColor" />
  <circle cx="5.5" cy="13.5" r="0.5" fill="currentColor" />
  <circle cx="7.5" cy="13.5" r="0.5" fill="currentColor" />
  <circle cx="9.5" cy="13.5" r="0.5" fill="currentColor" />
  <circle cx="11.5" cy="13.5" r="0.5" fill="currentColor" />
  <circle cx="13.5" cy="13.5" r="0.5" fill="currentColor" />
  <circle cx="1.5" cy="3.5" r="0.5" fill="currentColor" />
  <circle cx="1.5" cy="5.5" r="0.5" fill="currentColor" />
  <circle cx="1.5" cy="7.5" r="0.5" fill="currentColor" />
  <circle cx="1.5" cy="9.5" r="0.5" fill="currentColor" />
  <circle cx="1.5" cy="11.5" r="0.5" fill="currentColor" />
  <circle cx="13.5" cy="3.5" r="0.5" fill="currentColor" />
  <circle cx="13.5" cy="5.5" r="0.5" fill="currentColor" />
  <circle cx="13.5" cy="7.5" r="0.5" fill="currentColor" />
  <circle cx="13.5" cy="9.5" r="0.5" fill="currentColor" />
  <circle cx="13.5" cy="11.5" r="0.5" fill="currentColor" />
</svg>
